<svg xmlns="http://www.w3.org/2000/svg" height="512pt" version="1.1" viewBox="0 0 512.00122 512" width="512pt">
<g id="surface1">
<path d="M 203.597656 392.324219 C 207.832031 394.394531 212.066406 396.363281 216.5 398.136719 L 216.5 394 C 211.824219 393.925781 207.179688 393.183594 202.710938 391.792969 C 202.996094 391.933594 203.261719 392.089844 203.539062 392.226562 C 203.578125 392.246094 203.601562 392.285156 203.597656 392.324219 Z M 203.597656 392.324219 " style=" stroke:none;fill-rule:nonzero;fill:rgb(92.156863%,89.803922%,86.666667%);fill-opacity:1;" />
<path d="M 182.027344 379.867188 C 187.835938 385.480469 194.941406 389.578125 202.710938 391.792969 C 195.566406 388.265625 188.65625 384.28125 182.027344 379.867188 Z M 182.027344 379.867188 " style=" stroke:none;fill-rule:nonzero;fill:rgb(92.156863%,89.803922%,86.666667%);fill-opacity:1;" />
<path d="M 295.300781 0 C 228.015625 -0.0546875 164.53125 31.179688 123.515625 84.511719 C 193.417969 30.632812 289 24.476562 365.234375 68.949219 C 289 24.476562 193.417969 30.632812 123.515625 84.511719 C 108.75 95.832031 95.535156 109.046875 84.214844 123.816406 C 91.71875 118.035156 99.582031 112.738281 107.757812 107.957031 C 139.671875 89.4375 176.804688 88.648438 216.5 88.648438 C 336.179688 88.648438 423.351562 175.824219 423.351562 295.5 C 423.351562 335.195312 422.5625 372.332031 404.042969 404.246094 C 399.285156 412.433594 393.988281 420.300781 388.1875 427.785156 C 402.933594 416.40625 416.144531 403.160156 427.488281 388.386719 L 427.585938 388.289062 L 427.683594 388.1875 C 481.175781 318.613281 487.433594 223.648438 443.542969 147.652344 C 487.433594 223.648438 481.175781 318.613281 427.683594 388.1875 C 522.394531 315.023438 539.863281 178.933594 466.695312 84.222656 C 425.679688 31.132812 362.386719 0.03125 295.300781 0 Z M 393.742188 88.886719 C 404.613281 97.859375 414.589844 107.863281 423.527344 118.761719 C 414.589844 107.863281 404.613281 97.859375 393.742188 88.886719 Z M 393.742188 88.886719 " style=" stroke:none;fill-rule:nonzero;fill:rgb(100%,76.862745%,46.666667%);fill-opacity:1;" />
<path d="M 511.703125 205.765625 L 511.703125 205.273438 C 511.507812 202.222656 511.308594 199.167969 511.015625 196.214844 C 510.722656 193.257812 510.425781 190.304688 510.03125 187.445312 C 509.734375 185.179688 509.441406 182.914062 508.949219 180.652344 C 508.554688 177.894531 508.0625 175.136719 507.46875 172.378906 C 506.878906 169.71875 506.289062 166.960938 505.597656 164.300781 C 504.007812 157.734375 502.066406 151.257812 499.785156 144.894531 C 499.292969 143.417969 498.800781 142.039062 498.210938 140.5625 C 494.84375 131.53125 490.863281 122.746094 486.292969 114.261719 C 485.210938 112.292969 484.125 110.222656 482.945312 108.253906 C 477.109375 98.082031 470.421875 88.429688 462.949219 79.394531 C 460.683594 76.636719 458.417969 73.976562 456.054688 71.316406 C 453.6875 68.65625 451.128906 66.09375 448.566406 63.4375 C 443.640625 58.511719 438.519531 53.882812 433.203125 49.449219 C 419.734375 38.367188 404.984375 28.941406 389.269531 21.378906 C 386.117188 19.800781 382.964844 18.421875 379.714844 17.042969 C 377.253906 16.058594 374.792969 15.074219 372.425781 14.089844 C 371.046875 13.597656 369.570312 13.003906 368.191406 12.511719 L 361.984375 10.445312 C 360.703125 10.050781 359.425781 9.65625 358.242188 9.261719 C 355.484375 8.472656 352.726562 7.6875 349.871094 6.898438 C 349.566406 6.878906 349.265625 6.8125 348.984375 6.703125 C 342.777344 5.125 336.472656 3.84375 330.070312 2.761719 L 325.835938 2.171875 C 323.078125 1.777344 320.320312 1.382812 317.460938 1.085938 C 313.816406 0.792969 310.171875 0.496094 306.527344 0.300781 L 306.332031 0.300781 C 302.6875 0.0976562 299.042969 0 295.300781 0 C 292.148438 0 289.09375 0.0976562 286.042969 0.199219 L 285.941406 0.199219 C 282.988281 0.296875 280.132812 0.492188 277.273438 0.789062 L 276.488281 0.789062 C 273.53125 1.085938 270.578125 1.378906 267.722656 1.773438 C 259.972656 2.753906 252.277344 4.132812 244.671875 5.910156 L 237.972656 7.683594 C 235.707031 8.273438 233.441406 8.964844 231.175781 9.652344 C 225.761719 11.328125 220.34375 13.199219 215.023438 15.367188 C 212.558594 16.253906 210.097656 17.335938 207.734375 18.417969 C 202.378906 20.703125 197.152344 23.265625 192.070312 26.101562 C 190.199219 27.085938 188.425781 28.074219 186.554688 29.15625 C 185.84375 29.546875 185.15625 29.972656 184.488281 30.4375 C 177.035156 34.851562 169.867188 39.71875 163.015625 45.015625 L 162.914062 45.113281 C 159.171875 47.96875 155.625 50.925781 152.179688 53.976562 C 149.226562 56.539062 146.269531 59.199219 143.511719 61.957031 C 142.132812 63.335938 140.652344 64.8125 139.273438 66.289062 C 137.109375 68.457031 135.136719 70.625 133.167969 72.890625 C 132.675781 73.480469 132.183594 73.972656 131.691406 74.5625 C 129.425781 77.125 127.257812 79.785156 125.289062 82.445312 C 124.738281 82.984375 124.242188 83.578125 123.808594 84.21875 C 131.273438 78.535156 139.066406 73.304688 147.15625 68.554688 C 250.808594 8.570312 383.457031 43.96875 443.445312 147.617188 C 482.328125 214.804688 482.328125 297.65625 443.445312 364.84375 C 438.683594 372.980469 433.421875 380.808594 427.683594 388.285156 C 428.101562 387.988281 428.496094 387.660156 428.867188 387.300781 C 431.820312 385.035156 434.679688 382.769531 437.4375 380.308594 C 438.027344 379.816406 438.519531 379.324219 439.011719 378.929688 C 441.867188 376.367188 444.625 373.808594 447.285156 371.148438 C 447.976562 370.558594 448.566406 369.964844 449.15625 369.375 C 455.539062 362.976562 461.496094 356.164062 466.984375 348.984375 C 467.085938 348.886719 467.183594 348.789062 467.183594 348.691406 C 468.855469 346.425781 470.628906 344.160156 472.207031 341.796875 C 475.652344 337.167969 478.808594 332.332031 481.664062 327.316406 C 482.058594 326.722656 482.449219 326.035156 482.84375 325.445312 C 483.929688 323.574219 485.011719 321.601562 485.996094 319.730469 C 486.097656 319.632812 486.195312 319.535156 486.195312 319.4375 C 488.851562 314.410156 491.316406 309.289062 493.679688 304.070312 C 494.863281 301.410156 495.945312 298.652344 497.027344 295.992188 C 498.113281 293.332031 499.097656 290.476562 500.082031 287.71875 C 504.761719 274.15625 508.09375 260.167969 510.03125 245.953125 C 510.226562 244.378906 510.425781 242.703125 510.621094 241.128906 C 510.820312 239.15625 511.015625 237.1875 511.214844 235.121094 C 511.507812 232.164062 511.707031 229.113281 511.804688 226.058594 L 511.804688 225.957031 C 511.902344 222.90625 512 219.851562 512 216.699219 C 512 213.054688 511.902344 209.410156 511.703125 205.765625 Z M 511.703125 205.765625 " style=" stroke:none;fill-rule:nonzero;fill:rgb(100%,85.490196%,66.666667%);fill-opacity:1;" />
<path d="M 339.722656 418.722656 L 339.625 418.722656 C 334.183594 418.695312 329.796875 414.265625 329.824219 408.824219 C 329.851562 403.382812 334.28125 398.996094 339.722656 399.023438 C 345.164062 399.050781 349.550781 403.480469 349.523438 408.921875 C 349.496094 414.324219 345.125 418.695312 339.722656 418.722656 Z M 339.722656 418.722656 " style=" stroke:none;fill-rule:nonzero;fill:rgb(13.72549%,12.156863%,12.54902%);fill-opacity:1;" />
<path d="M 433.199219 295.5 C 433.125 175.742188 335.984375 78.722656 216.226562 78.796875 C 178.136719 78.820312 140.726562 88.878906 107.757812 107.957031 C 99.582031 112.738281 91.71875 118.035156 84.214844 123.816406 C -10.488281 196.992188 -27.941406 333.082031 45.234375 427.785156 C 118.410156 522.488281 254.503906 539.941406 349.207031 466.765625 C 363.804688 455.484375 376.902344 442.386719 388.183594 427.785156 C 417.496094 389.929688 433.335938 343.375 433.199219 295.5 Z M 98.09375 413.90625 C 88.714844 404.5625 80.515625 394.105469 73.675781 382.769531 C 80.523438 394.109375 88.734375 404.566406 98.125 413.90625 C 110.777344 426.636719 125.421875 437.214844 141.484375 445.21875 C 125.410156 437.214844 110.753906 426.640625 98.09375 413.90625 Z M 167.25 344.75 C 167.246094 357.96875 172.570312 370.628906 182.027344 379.867188 C 188.65625 384.28125 195.566406 388.265625 202.710938 391.792969 C 228.746094 399.476562 256.082031 384.597656 263.761719 358.5625 C 271.445312 332.523438 256.566406 305.191406 230.53125 297.507812 C 225.976562 296.164062 221.25 295.488281 216.5 295.5 C 189.300781 295.5 167.25 273.449219 167.25 246.25 C 167.25 219.050781 189.300781 197 216.5 197 C 243.703125 197 265.75 219.050781 265.75 246.25 C 265.75 219.050781 243.703125 197 216.5 197 C 189.300781 197 167.25 219.050781 167.25 246.25 C 167.25 273.449219 189.300781 295.5 216.5 295.5 C 243.703125 295.5 265.75 317.550781 265.75 344.75 C 265.75 371.949219 243.703125 394 216.5 394 L 216.5 398.136719 C 212.070312 396.363281 207.832031 394.394531 203.597656 392.324219 C 203.597656 392.273438 203.554688 392.226562 203.5 392.226562 C 203.222656 392.089844 202.957031 391.933594 202.671875 391.792969 C 194.902344 389.578125 187.796875 385.480469 181.988281 379.867188 L 181.59375 379.621094 L 181.988281 379.867188 C 172.546875 370.621094 167.234375 357.960938 167.25 344.75 Z M 339.722656 408.875 L 339.625 408.875 C 338.148438 410.546875 336.570312 412.222656 334.898438 413.898438 C 295.382812 453.378906 238.785156 470.558594 183.996094 459.699219 C 238.785156 470.558594 295.382812 453.378906 334.898438 413.898438 C 336.570312 412.222656 338.148438 410.546875 339.625 408.875 L 339.722656 408.875 C 402.398438 340.875 398.085938 234.9375 330.082031 172.261719 C 262.082031 109.582031 156.148438 113.898438 93.46875 181.898438 C 53.851562 224.882812 39.515625 285.414062 55.648438 341.597656 C 30.191406 252.722656 81.601562 160.042969 170.476562 134.585938 C 259.347656 109.128906 352.03125 160.539062 377.488281 249.410156 C 393.558594 305.515625 379.25 365.9375 339.722656 408.875 Z M 339.722656 408.875 " style=" stroke:none;fill-rule:nonzero;fill:rgb(100%,71.372549%,33.333333%);fill-opacity:1;" />
<path d="M 141.484375 455.070312 C 139.96875 455.082031 138.472656 454.746094 137.109375 454.085938 C 120.082031 445.617188 104.550781 434.425781 91.128906 420.949219 C 81.164062 411.015625 72.460938 399.898438 65.203125 387.84375 C 62.316406 383.234375 63.71875 377.15625 68.328125 374.269531 C 72.941406 371.382812 79.019531 372.78125 81.902344 377.394531 C 81.964844 377.496094 82.027344 377.597656 82.085938 377.699219 C 88.523438 388.347656 96.242188 398.171875 105.066406 406.945312 C 116.976562 418.902344 130.757812 428.835938 145.867188 436.355469 C 150.761719 438.726562 152.808594 444.617188 150.4375 449.515625 C 148.777344 452.941406 145.292969 455.105469 141.484375 455.070312 Z M 141.484375 455.070312 " style=" stroke:none;fill-rule:nonzero;fill:rgb(94.509804%,94.901961%,94.901961%);fill-opacity:1;" />
<path d="M 216.5 285.652344 C 194.742188 285.652344 177.101562 268.011719 177.101562 246.25 C 177.101562 224.492188 194.742188 206.851562 216.5 206.851562 C 238.261719 206.851562 255.898438 224.492188 255.898438 246.25 L 275.601562 246.25 C 275.546875 217.445312 254.75 192.863281 226.351562 188.039062 L 226.351562 167.453125 L 206.648438 167.453125 L 206.648438 188.039062 C 174.5 193.667969 153 224.292969 158.628906 256.445312 C 163.558594 284.59375 187.921875 305.183594 216.5 305.351562 C 238.257812 305.050781 256.140625 322.449219 256.4375 344.207031 C 256.734375 365.964844 239.339844 383.84375 217.582031 384.144531 C 213.890625 384.195312 210.210938 383.726562 206.648438 382.753906 C 200.332031 379.605469 194.207031 376.074219 188.320312 372.183594 C 181.132812 364.859375 177.109375 355.011719 177.101562 344.75 L 157.398438 344.75 C 157.417969 361.054688 164.191406 376.617188 176.113281 387.738281 L 176.113281 387.785156 C 182.824219 394.105469 190.921875 398.765625 199.753906 401.398438 C 202.007812 402.492188 204.34375 403.457031 206.648438 404.492188 L 206.648438 423.550781 L 226.347656 423.550781 L 226.347656 402.867188 C 258.5 397.5625 280.261719 367.195312 274.957031 335.046875 C 270.238281 306.460938 245.46875 285.53125 216.5 285.652344 Z M 216.5 285.652344 " style=" stroke:none;fill-rule:nonzero;fill:rgb(100%,31.372549%,13.72549%);fill-opacity:1;" />
<path d="M 341.871094 170.140625 C 272.730469 100.898438 160.550781 100.820312 91.3125 169.957031 C 83.921875 177.335938 77.199219 185.355469 71.222656 193.917969 C 40.539062 237.667969 31.328125 292.964844 46.175781 344.296875 C 47.664062 349.53125 53.117188 352.5625 58.347656 351.074219 C 63.582031 349.582031 66.617188 344.132812 65.125 338.898438 C 41.164062 255.253906 89.546875 168.027344 173.191406 144.066406 C 228.210938 128.304688 287.449219 143.621094 327.933594 184.078125 C 331.675781 187.8125 335.191406 191.675781 338.480469 195.671875 C 388.242188 255.96875 386 343.707031 333.222656 401.386719 C 332.871094 401.691406 332.539062 402.019531 332.238281 402.371094 C 330.898438 403.890625 329.480469 405.414062 327.921875 406.953125 C 290.746094 444.078125 237.507812 460.238281 185.964844 450.035156 C 180.628906 448.976562 175.445312 452.445312 174.386719 457.78125 C 173.328125 463.117188 176.796875 468.304688 182.132812 469.359375 C 240.140625 480.851562 300.054688 462.667969 341.890625 420.878906 C 343.4375 419.34375 344.847656 417.804688 346.285156 416.257812 C 346.535156 416.035156 346.777344 415.800781 347.003906 415.550781 C 411.742188 345.746094 409.472656 237.179688 341.871094 170.140625 Z M 341.871094 170.140625 " style=" stroke:none;fill-rule:nonzero;fill:rgb(94.509804%,94.901961%,94.901961%);fill-opacity:1;" />
</g>
</svg>