<?xml version="1.0" encoding="UTF-8" standalone="no"?>
<!-- Generator: Adobe Illustrator 19.0.0, SVG Export Plug-In . SVG Version: 6.00 Build 0)  -->

<svg
   xmlns:dc="http://purl.org/dc/elements/1.1/"
   xmlns:cc="http://creativecommons.org/ns#"
   xmlns:rdf="http://www.w3.org/1999/02/22-rdf-syntax-ns#"
   xmlns:svg="http://www.w3.org/2000/svg"
   xmlns="http://www.w3.org/2000/svg"
   xmlns:sodipodi="http://sodipodi.sourceforge.net/DTD/sodipodi-0.dtd"
   xmlns:inkscape="http://www.inkscape.org/namespaces/inkscape"
   version="1.1"
   id="Layer_1"
   x="0px"
   y="0px"
   viewBox="0 0 378.13708 380.20001"
   xml:space="preserve"
   sodipodi:docname="logo.svg"
   inkscape:version="0.92.3 (unknown)"
   width="378.13708"
   height="380.20001"><metadata
   id="metadata4780"><rdf:RDF><cc:Work
       rdf:about=""><dc:format>image/svg+xml</dc:format><dc:type
         rdf:resource="http://purl.org/dc/dcmitype/StillImage" /><dc:title></dc:title></cc:Work></rdf:RDF></metadata><defs
   id="defs4778" /><sodipodi:namedview
   pagecolor="#ffffff"
   bordercolor="#666666"
   borderopacity="1"
   objecttolerance="10"
   gridtolerance="10"
   guidetolerance="10"
   inkscape:pageopacity="0"
   inkscape:pageshadow="2"
   inkscape:window-width="1877"
   inkscape:window-height="1056"
   id="namedview4776"
   showgrid="false"
   inkscape:zoom="0.96"
   inkscape:cx="162.93206"
   inkscape:cy="12.687301"
   inkscape:window-x="43"
   inkscape:window-y="32"
   inkscape:window-maximized="1"
   inkscape:current-layer="g4741"
   inkscape:object-paths="true"
   fit-margin-top="0"
   fit-margin-left="0"
   fit-margin-right="0"
   fit-margin-bottom="0" />
<g
   id="g4743"
   transform="translate(-55.981929,-25.9)">
	<g
   id="g4741">
		<path
   style="fill:#ffffff"
   d="m 356.319,340 2.5,-2.2 c 0.4,-0.3 0.7,-0.6 1,-1 1.3,-1.5 30.5,-35.2 41.6,-61.1 h 5.3 c 15.1,0 27.4,-12.3 27.4,-27.4 V 205 c 0,-15.1 -12.3,-27.4 -27.4,-27.4 h -5.9 c -9.1,-23.7 -24.6,-45.1 -45.2,-62.5 -3,-10.7 -0.8,-22.1 6.7,-34 4.2,-6.7 4.2,-15.1 -0.1,-21.8 -4.3,-6.7 -11.8,-10.3 -19.7,-9.3 -28.9,3.6 -46.2,16.7 -56.3,28.9 -9.5,-2.6 -19.3,-4.6 -29.2,-5.7 -5.4,-0.6 -10.4,3.2 -11,8.7 -0.6,5.4 3.2,10.4 8.7,11 11,1.3 21.9,3.7 32.3,7 4.2,1.3 8.7,-0.3 11.2,-3.9 6.8,-10.1 20.5,-22.9 46.7,-26.2 0.2,0 0.4,0 0.6,0.3 0.2,0.3 0.1,0.5 0,0.6 -10.4,16.6 -13.5,33.9 -8.9,50.1 0.1,2.9 1.4,5.6 3.7,7.4 21.1,17 36.4,38.6 44.2,62.5 1.3,4.1 5.2,6.8 9.4,6.8 v 0 h 12.8 c 4.2,0 7.6,3.4 7.6,7.6 v 43.3 c 0,4.2 -3.4,7.6 -7.6,7.6 h -12.1 c -4.3,0 -8.2,2.8 -9.5,7 -5.6,18.3 -30.2,49.3 -39.8,60.4 l -2.2,1.9 c -20.6,18.6 -22.7,40.6 -22.8,47.2 v 13.9 h -57.1 V 373 c 0,-2.8 -1.2,-5.5 -3.3,-7.4 -2.1,-1.9 -4.9,-2.8 -7.7,-2.5 -14.6,1.5 -29.3,1.3 -43.5,-0.6 -2.8,-0.4 -5.7,0.5 -7.8,2.4 -2.2,1.9 -3.4,4.6 -3.4,7.5 v 13.9 h -57.1 v -3.9 c 0,-0.1 0,-0.3 0,-0.4 -0.5,-10.5 -3.8,-37.1 -24.6,-58.5 -9.8,-10.1 -18.6,-23.5 -26.2,-39.7 -0.1,-0.1 -0.1,-0.2 -0.2,-0.4 -4.5,-8.6 -7.9,-17.7 -10.2,-27.3 l -0.1,-0.4 c 0,-0.1 -0.1,-0.2 -0.1,-0.3 -3.6,-12 -3.2,-27.1 -3.2,-27.2 0,-0.1 0,-0.2 0,-0.3 0,-6.6 0.6,-13.3 1.6,-19.8 0.9,-5.4 -2.7,-10.5 -8.1,-11.4 -5.4,-0.9 -10.5,2.7 -11.4,8.1 -1.3,7.5 -1.9,15.2 -1.9,22.9 -0.1,2 -0.3,18.8 4,33.3 v 0 c 2.6,10.7 6.6,21.2 11.7,31.2 8.4,18.2 18.5,33.3 29.8,45 15.9,16.4 18.6,37 19,45.4 v 4.1 c 0,0.4 0,0.7 0.1,1.3 0.7,10.1 9.2,18.1 19.3,18.1 h 57.9 c 10.7,0 19.4,-8.7 19.4,-19.4 v -3.3 c 8.7,0.7 17.3,0.8 26.1,0.4 v 2.9 c 0,10.7 8.7,19.4 19.4,19.4 h 57.9 c 10.7,0 19.4,-8.7 19.4,-19.4 v -14.1 c 0.2,-3.1 1.3,-19.1 16.3,-32.6 z"
   id="path4735"
   inkscape:connector-curvature="0" />
		<path
   style="fill:#ffffff"
   d="m 56.819,107.4 c 0,44.9 36.5,81.5 81.5,81.5 44.9,0 81.5,-36.5 81.5,-81.5 0,-44.9 -36.5,-81.5 -81.5,-81.5 -44.9,0 -81.5,36.5 -81.5,81.5 z m 143.2,0 c 0,34 -27.7,61.7 -61.7,61.7 -34,0 -61.7,-27.7 -61.7,-61.7 0,-34 27.7,-61.7 61.7,-61.7 34,0 61.7,27.7 61.7,61.7 z"
   id="path4737"
   inkscape:connector-curvature="0" />
		
	</g>
</g>
<g
   id="g4745"
   transform="translate(-55.981929,-25.9)">
</g>
<g
   id="g4747"
   transform="translate(-55.981929,-25.9)">
</g>
<g
   id="g4749"
   transform="translate(-55.981929,-25.9)">
</g>
<g
   id="g4751"
   transform="translate(-55.981929,-25.9)">
</g>
<g
   id="g4753"
   transform="translate(-55.981929,-25.9)">
</g>
<g
   id="g4755"
   transform="translate(-55.981929,-25.9)">
</g>
<g
   id="g4757"
   transform="translate(-55.981929,-25.9)">
</g>
<g
   id="g4759"
   transform="translate(-55.981929,-25.9)">
</g>
<g
   id="g4761"
   transform="translate(-55.981929,-25.9)">
</g>
<g
   id="g4763"
   transform="translate(-55.981929,-25.9)">
</g>
<g
   id="g4765"
   transform="translate(-55.981929,-25.9)">
</g>
<g
   id="g4767"
   transform="translate(-55.981929,-25.9)">
</g>
<g
   id="g4769"
   transform="translate(-55.981929,-25.9)">
</g>
<g
   id="g4771"
   transform="translate(-55.981929,-25.9)">
</g>
<g
   id="g4773"
   transform="translate(-55.981929,-25.9)">
</g>
</svg>